<svg width="20" height="20" viewBox="0 0 20 20" fill="none" xmlns="http://www.w3.org/2000/svg">
<g clip-path="url(#clip0_86_202)">
<path d="M16.6666 10V18.3333H3.33325V10" stroke="#14193F" stroke-width="2" stroke-linecap="round" stroke-linejoin="round"/>
<path d="M18.3334 5.83334H1.66675V10H18.3334V5.83334Z" stroke="#14193F" stroke-width="2" stroke-linecap="round" stroke-linejoin="round"/>
<path d="M10 18.3333V5.83334" stroke="#14193F" stroke-width="2" stroke-linecap="round" stroke-linejoin="round"/>
<path d="M10 5.83332H13.75C14.3025 5.83332 14.8324 5.61383 15.2231 5.22313C15.6138 4.83243 15.8333 4.30252 15.8333 3.74999C15.8333 3.19746 15.6138 2.66755 15.2231 2.27685C14.8324 1.88615 14.3025 1.66666 13.75 1.66666C10.8333 1.66666 10 5.83332 10 5.83332Z" stroke="#14193F" stroke-width="2" stroke-linecap="round" stroke-linejoin="round"/>
<path d="M10.0001 5.83332H6.25008C5.69755 5.83332 5.16764 5.61383 4.77694 5.22313C4.38624 4.83243 4.16675 4.30252 4.16675 3.74999C4.16675 3.19746 4.38624 2.66755 4.77694 2.27685C5.16764 1.88615 5.69755 1.66666 6.25008 1.66666C9.16675 1.66666 10.0001 5.83332 10.0001 5.83332Z" stroke="#14193F" stroke-width="2" stroke-linecap="round" stroke-linejoin="round"/>
</g>
<defs>
<clipPath id="clip0_86_202">
<rect width="20" height="20" fill="white"/>
</clipPath>
</defs>
</svg>
